<svg width="156" height="186" version="1.1" xmlns="http://www.w3.org/2000/svg" desc="Created with imagetracer.js version 1.2.6" ><path fill="rgb(0,37,216)" stroke="rgb(0,37,216)" stroke-width="1" opacity="0.00392156862745098" d="M 39.5 5 L 40 7.5 L 39 7.5 L 39.5 5 Z " /><path fill="rgb(0,37,216)" stroke="rgb(0,37,216)" stroke-width="1" opacity="0.00392156862745098" d="M 54.5 19 L 55 36.5 L 54 36.5 L 54.5 19 Z " /><path fill="rgb(0,37,216)" stroke="rgb(0,37,216)" stroke-width="1" opacity="0.00392156862745098" d="M 78.5 19 L 85 19.5 L 78.5 20 L 78.5 19 Z " /><path fill="rgb(0,37,216)" stroke="rgb(0,37,216)" stroke-width="1" opacity="0.00392156862745098" d="M 96.5 19 L 100 19.5 L 96.5 20 L 96.5 19 Z " /><path fill="rgb(0,37,216)" stroke="rgb(0,37,216)" stroke-width="1" opacity="0.00392156862745098" d="M 39.5 34 L 40 36.5 L 39 36.5 L 39.5 34 Z " /><path fill="rgb(0,37,216)" stroke="rgb(0,37,216)" stroke-width="1" opacity="0.00392156862745098" d="M 132.5 34 L 138 34.5 L 132.5 35 L 132.5 34 Z " /><path fill="rgb(0,37,216)" stroke="rgb(0,37,216)" stroke-width="1" opacity="0.00392156862745098" d="M 46.5 37 L 50 37.5 L 46.5 38 L 46.5 37 Z " /><path fill="rgb(0,37,216)" stroke="rgb(0,37,216)" stroke-width="1" opacity="0.00392156862745098" d="M 151.5 39 L 152.5 41 L 151.5 39 Z " /><path fill="rgb(0,37,216)" stroke="rgb(0,37,216)" stroke-width="1" opacity="0.00392156862745098" d="M 16.5 49 L 19 49.5 L 16.5 50 L 16.5 49 Z " /><path fill="rgb(0,37,216)" stroke="rgb(0,37,216)" stroke-width="1" opacity="0.00392156862745098" d="M 25.5 49 L 28 49.5 L 25.5 50 L 25.5 49 Z " /><path fill="rgb(0,37,216)" stroke="rgb(0,37,216)" stroke-width="1" opacity="0.00392156862745098" d="M 119.5 55 L 118.5 57 L 119.5 55 Z " /><path fill="rgb(0,37,216)" stroke="rgb(0,37,216)" stroke-width="1" opacity="0.00392156862745098" d="M 114.5 59 L 113.5 61 L 114.5 59 Z " /><path fill="rgb(0,37,216)" stroke="rgb(0,37,216)" stroke-width="1" opacity="0.00392156862745098" d="M 2.5 60 L 3 114.5 L 2 114.5 L 2.5 60 Z " /><path fill="rgb(0,37,216)" stroke="rgb(0,37,216)" stroke-width="1" opacity="0.00392156862745098" d="M 19.5 64 L 26 64.5 L 19.5 65 L 19.5 64 Z " /><path fill="rgb(0,37,216)" stroke="rgb(0,37,216)" stroke-width="1" opacity="0.00392156862745098" d="M 63.5 64 L 66 64.5 L 63.5 65 L 63.5 64 Z " /><path fill="rgb(0,37,216)" stroke="rgb(0,37,216)" stroke-width="1" opacity="0.00392156862745098" d="M 67.5 64 L 71 65.5 L 69.5 65 Q 66.5 65.5 67.5 64 Z " /><path fill="rgb(0,37,216)" stroke="rgb(0,37,216)" stroke-width="1" opacity="0.00392156862745098" d="M 86.5 65 L 87 80.5 L 86 80.5 L 86.5 65 Z " /><path fill="rgb(0,37,216)" stroke="rgb(0,37,216)" stroke-width="1" opacity="0.00392156862745098" d="M 34.5 68 L 35.5 70 L 34.5 68 Z " /><path fill="rgb(0,37,216)" stroke="rgb(0,37,216)" stroke-width="1" opacity="0.00392156862745098" d="M 54.5 68 L 53.5 70 L 54.5 68 Z " /><path fill="rgb(0,37,216)" stroke="rgb(0,37,216)" stroke-width="1" opacity="0.00392156862745098" d="M 50.5 71 L 49.5 73 L 50.5 71 Z " /><path fill="rgb(0,37,216)" stroke="rgb(0,37,216)" stroke-width="1" opacity="0.00392156862745098" d="M 94.5 86 L 97 86.5 L 94.5 87 L 94.5 86 Z " /><path fill="rgb(0,37,216)" stroke="rgb(0,37,216)" stroke-width="1" opacity="0.00392156862745098" d="M 20.5 96 L 24 96.5 L 20.5 97 L 20.5 96 Z " /><path fill="rgb(0,37,216)" stroke="rgb(0,37,216)" stroke-width="1" opacity="0.00392156862745098" d="M 44.5 104 L 50.5 111 L 44.5 104 Z " /><path fill="rgb(0,37,216)" stroke="rgb(0,37,216)" stroke-width="1" opacity="0.00392156862745098" d="M 101.5 104 L 102.5 106 L 101.5 104 Z " /><path fill="rgb(0,37,216)" stroke="rgb(0,37,216)" stroke-width="1" opacity="0.00392156862745098" d="M 123.5 104 L 122.5 106 L 123.5 104 Z " /><path fill="rgb(0,37,216)" stroke="rgb(0,37,216)" stroke-width="1" opacity="0.00392156862745098" d="M 105.5 107 L 111.5 114 L 105.5 107 Z " /><path fill="rgb(0,37,216)" stroke="rgb(0,37,216)" stroke-width="1" opacity="0.00392156862745098" d="M 119.5 107 L 113.5 114 L 119.5 107 Z " /><path fill="rgb(0,37,216)" stroke="rgb(0,37,216)" stroke-width="1" opacity="0.00392156862745098" d="M 6.5 116 L 5.5 118 L 6.5 116 Z " /><path fill="rgb(0,37,216)" stroke="rgb(0,37,216)" stroke-width="1" opacity="0.00392156862745098" d="M 117.5 128 L 118 176.5 L 117 176.5 L 117.5 128 Z " /><path fill="rgb(0,0,0)" stroke="rgb(0,0,0)" stroke-width="1" opacity="0" d="M 0 0 L 156 0 L 156 186 L 0 186 L 0 0 Z M 41 4 L 39 6 L 39 37 L 46 37 L 47 38 L 51 37 Q 55 37 55 37 L 55 19 L 78 19 L 79 20 Q 84 22 86 19 L 96 19 L 97 20 L 104 19 L 105 21 L 105 67 L 122 54 L 131 50 L 138 50 L 139 52 L 139 86 Q 122 85 114 93 L 101 87 L 86 86 L 87 81 L 87 66 L 86 65 L 86 55 L 72 49 Q 54 48 46 56 L 28 49 L 17 49 L 6 54 L 3 57 L 2 61 L 2 115 L 4 119 Q 9 113 20 111 L 28 112 L 35 116 L 36 119 L 36 183 L 117 183 L 117 180 L 118 177 L 118 129 L 117 125 L 102 125 L 102 168 L 53 168 L 51 167 L 51 111 L 42 102 L 31 97 Q 25 99 24 96 L 20 97 L 18 96 L 18 65 L 31 66 L 44 77 L 46 77 L 59 66 L 67 64 L 70 65 L 71 67 L 71 108 L 87 101 Q 105 102 112 114 L 114 114 L 125 104 L 132 101 Q 146 100 153 108 L 154 108 L 154 42 L 146 36 L 138 34 L 127 35 L 123 37 L 120 37 L 120 4 L 41 4 Z " /><path fill="rgb(2,101,178)" stroke="rgb(2,101,178)" stroke-width="1" opacity="0.5568627450980392" d="M 40.5 4 L 118.5 4 L 120 5.5 L 119.5 38 L 119 5 L 40.5 5 L 40.5 4 Z " /><path fill="rgb(2,101,178)" stroke="rgb(2,101,178)" stroke-width="1" opacity="0.5568627450980392" d="M 39.5 8 L 40 33.5 L 39 33.5 L 39.5 8 Z " /><path fill="rgb(2,101,178)" stroke="rgb(2,101,178)" stroke-width="1" opacity="0.5568627450980392" d="M 105.5 19 L 106 66.5 L 105 66.5 L 105.5 19 Z " /><path fill="rgb(2,101,178)" stroke="rgb(2,101,178)" stroke-width="1" opacity="0.5568627450980392" d="M 153.5 41 L 154 98.5 L 153 98.5 L 153.5 41 Z " /><path fill="rgb(2,101,178)" stroke="rgb(2,101,178)" stroke-width="1" opacity="0.5568627450980392" d="M 19.5 49 L 25 49.5 L 19.5 50 L 19.5 49 Z " /><path fill="rgb(2,101,178)" stroke="rgb(2,101,178)" stroke-width="1" opacity="0.5568627450980392" d="M 63.5 49 L 70 49.5 L 63.5 50 L 63.5 49 Z " /><path fill="rgb(2,101,178)" stroke="rgb(2,101,178)" stroke-width="1" opacity="0.5568627450980392" d="M 131.5 49 L 138 49.5 L 131.5 50 L 131.5 49 Z " /><path fill="rgb(2,101,178)" stroke="rgb(2,101,178)" stroke-width="1" opacity="0.5568627450980392" d="M 52.5 52 L 54 52.5 L 51.5 54 L 52.5 52 Z " /><path fill="rgb(2,101,178)" stroke="rgb(2,101,178)" stroke-width="1" opacity="0.5568627450980392" d="M 7.5 53 L 6.5 55 L 7.5 53 Z " /><path fill="rgb(2,101,178)" stroke="rgb(2,101,178)" stroke-width="1" opacity="0.5568627450980392" d="M 37.5 53 L 40 54.5 L 38.5 54 L 37.5 53 Z " /><path fill="rgb(2,101,178)" stroke="rgb(2,101,178)" stroke-width="1" opacity="0.5568627450980392" d="M 81.5 53 L 86 56.5 L 85.5 58 L 83.5 55 L 81.5 53 Z " /><path fill="rgb(2,101,178)" stroke="rgb(2,101,178)" stroke-width="1" opacity="0.5568627450980392" d="M 121.5 53 L 120.5 55 L 121.5 53 Z " /><path fill="rgb(2,101,178)" stroke="rgb(2,101,178)" stroke-width="1" opacity="0.5568627450980392" d="M 4.5 55 L 4 56.5 L 3.5 62 L 3 56.5 L 4.5 55 Z " /><path fill="rgb(2,101,178)" stroke="rgb(2,101,178)" stroke-width="1" opacity="0.5568627450980392" d="M 117.5 56 L 115.5 59 L 117.5 56 Z " /><path fill="rgb(2,101,178)" stroke="rgb(2,101,178)" stroke-width="1" opacity="0.5568627450980392" d="M 112.5 60 L 107.5 66 L 112.5 60 Z " /><path fill="rgb(2,101,178)" stroke="rgb(2,101,178)" stroke-width="1" opacity="0.5568627450980392" d="M 71.5 66 L 72 70.5 L 71 70.5 L 71.5 66 Z " /><path fill="rgb(2,101,178)" stroke="rgb(2,101,178)" stroke-width="1" opacity="0.5568627450980392" d="M 17.5 67 L 18 71.5 L 17 71.5 L 17.5 67 Z " /><path fill="rgb(2,101,178)" stroke="rgb(2,101,178)" stroke-width="1" opacity="0.5568627450980392" d="M 35.5 68 L 43.5 77 L 35.5 68 Z " /><path fill="rgb(2,101,178)" stroke="rgb(2,101,178)" stroke-width="1" opacity="0.5568627450980392" d="M 53.5 68 L 51.5 71 L 53.5 68 Z " /><path fill="rgb(2,101,178)" stroke="rgb(2,101,178)" stroke-width="1" opacity="0.5568627450980392" d="M 48.5 73 L 45.5 77 L 48.5 73 Z " /><path fill="rgb(2,101,178)" stroke="rgb(2,101,178)" stroke-width="1" opacity="0.5568627450980392" d="M 85.5 81 L 86 86 L 94 86.5 L 86.5 87 Q 83.6 85.6 85.5 81 Z " /><path fill="rgb(2,101,178)" stroke="rgb(2,101,178)" stroke-width="1" opacity="0.5568627450980392" d="M 130.5 86 L 139 86.5 L 130.5 87 L 130.5 86 Z " /><path fill="rgb(2,101,178)" stroke="rgb(2,101,178)" stroke-width="1" opacity="0.5568627450980392" d="M 108.5 91 L 109.5 93 L 108.5 91 Z " /><path fill="rgb(2,101,178)" stroke="rgb(2,101,178)" stroke-width="1" opacity="0.5568627450980392" d="M 116.5 91 L 115.5 93 L 116.5 91 Z " /><path fill="rgb(2,101,178)" stroke="rgb(2,101,178)" stroke-width="1" opacity="0.5568627450980392" d="M 27.5 97 L 30 97.5 L 27.5 98 L 27.5 97 Z " /><path fill="rgb(2,101,178)" stroke="rgb(2,101,178)" stroke-width="1" opacity="0.5568627450980392" d="M 37.5 100 L 41 102.5 L 39.5 102 L 37.5 100 Z " /><path fill="rgb(2,101,178)" stroke="rgb(2,101,178)" stroke-width="1" opacity="0.5568627450980392" d="M 87.5 100 L 92 100.5 L 87.5 101 L 87.5 100 Z " /><path fill="rgb(2,101,178)" stroke="rgb(2,101,178)" stroke-width="1" opacity="0.5568627450980392" d="M 132.5 100 L 138 100.5 L 132.5 101 L 132.5 100 Z " /><path fill="rgb(2,101,178)" stroke="rgb(2,101,178)" stroke-width="1" opacity="0.5568627450980392" d="M 42.5 103 L 43.5 105 L 42.5 103 Z " /><path fill="rgb(2,101,178)" stroke="rgb(2,101,178)" stroke-width="1" opacity="0.5568627450980392" d="M 102.5 104 L 104.5 107 L 102.5 104 Z " /><path fill="rgb(2,101,178)" stroke="rgb(2,101,178)" stroke-width="1" opacity="0.5568627450980392" d="M 122.5 104 L 120.5 107 L 122.5 104 Z " /><path fill="rgb(2,101,178)" stroke="rgb(2,101,178)" stroke-width="1" opacity="0.5568627450980392" d="M 150.5 105 L 151.5 107 L 150.5 105 Z " /><path fill="rgb(2,101,178)" stroke="rgb(2,101,178)" stroke-width="1" opacity="0.5568627450980392" d="M 73.5 106 L 72.5 108 L 71 107.5 L 73.5 106 Z " /><path fill="rgb(2,101,178)" stroke="rgb(2,101,178)" stroke-width="1" opacity="0.5568627450980392" d="M 10.5 113 L 9.5 115 L 10.5 113 Z " /><path fill="rgb(2,101,178)" stroke="rgb(2,101,178)" stroke-width="1" opacity="0.5568627450980392" d="M 31.5 113 L 32.5 115 L 31.5 113 Z " /><path fill="rgb(2,101,178)" stroke="rgb(2,101,178)" stroke-width="1" opacity="0.5568627450980392" d="M 34.5 115 L 37 117.5 L 37 182 L 115.5 182 L 116.5 181 L 115.5 183 L 37.5 183 L 36 181.5 L 36 117.5 L 34.5 115 Z " /><path fill="rgb(2,101,178)" stroke="rgb(2,101,178)" stroke-width="1" opacity="0.5568627450980392" d="M 102.5 127 L 103 167.5 L 102 167.5 L 102.5 127 Z " /><path fill="rgb(2,101,178)" stroke="rgb(2,101,178)" stroke-width="1" opacity="0.5568627450980392" d="M 55.5 168 L 58 168.5 L 55.5 169 L 55.5 168 Z " /><path fill="rgb(3,105,181)" stroke="rgb(3,105,181)" stroke-width="1" opacity="0.984313725490196" d="M 40 5 L 119 5 L 119 37.5 L 122.5 38 L 130.5 35 L 138.5 35 L 143.5 36 L 153 41.5 L 153 98.5 Q 155.5 100 154 105.5 Q 152.3 108.8 150.5 105 Q 144.3 99.7 132.5 100 L 122.5 104 L 113.5 113 L 111.5 113 Q 104.9 101.1 87.5 100 L 71 107 L 71 71.5 L 72 66.5 L 71 64 L 61.5 64 Q 50.5 68 44.5 77 Q 38.5 68 27.5 64 L 18 64 L 17 71.5 L 18 72.5 L 18 97 L 26.5 97 L 36.5 100 L 50 110.5 L 51 112.5 L 51 168 L 57.5 169 L 58.5 168 L 103 168 L 103 125.5 L 103.5 125 L 115.5 125 L 117 126.5 L 117 180.5 L 115.5 182 L 37 182 L 37 117.5 L 34.5 115 Q 28.8 109.2 15.5 111 L 5.5 117 L 3 117 L 3 62.5 Q 5.3 61.3 4 56.5 L 5.5 55 Q 12.6 48.1 28.5 50 L 45.5 57 L 56.5 51 L 72.5 50 Q 80.3 51.7 85 56.5 L 86 58.5 L 86 80.5 L 85 85.5 L 86.5 87 L 100.5 88 L 113.5 94 L 127.5 87 L 139 87 L 139 50.5 L 137.5 49 L 131.5 49 L 121.5 53 L 106.5 66 L 106 19 L 54.5 19 L 54 19.5 L 54 35.5 L 52.5 37 L 40 37 L 40 5 Z " /></svg>